<svg width="103" height="53" viewBox="0 0 103 53" fill="none" xmlns="http://www.w3.org/2000/svg">
<path d="M0.999848 50.53C0.895062 50.6583 0.914165 50.8473 1.04251 50.9521L3.13401 52.6596C3.26236 52.7644 3.45135 52.7453 3.55613 52.617C3.66091 52.4886 3.64181 52.2996 3.51346 52.1949L1.65435 50.6771L3.17214 48.8179C3.27692 48.6896 3.25782 48.5006 3.12947 48.3958C3.00113 48.2911 2.81215 48.3101 2.70736 48.4385L0.999848 50.53ZM101.93 0.761198L101.687 0.58559C87.6972 19.9626 67.6692 31.909 48.5808 39.2689C29.4932 46.6284 11.365 49.394 1.20207 50.4212L1.23224 50.7197L1.2624 51.0182C11.4566 49.9878 29.6421 47.2141 48.7966 39.8287C67.9503 32.4437 88.0927 20.4397 102.173 0.936806L101.93 0.761198Z" fill="black"/>
</svg>
