<svg width="77" height="37" viewBox="0 0 77 37" fill="none" xmlns="http://www.w3.org/2000/svg">
<path d="M75.5943 36.3209C75.7589 36.3399 75.9077 36.2219 75.9267 36.0573L76.2361 33.3751C76.2551 33.2105 76.1371 33.0617 75.9725 33.0427C75.8079 33.0237 75.6591 33.1417 75.6401 33.3063L75.365 35.6905L72.9808 35.4154C72.8162 35.3964 72.6674 35.5144 72.6484 35.679C72.6294 35.8436 72.7475 35.9925 72.9121 36.0115L75.5943 36.3209ZM0.633501 2.00111L0.6924 2.29527C19.3673 -1.44396 35.5889 3.94189 48.376 11.815C61.1662 19.6901 70.5049 30.0454 75.3936 36.2093L75.6287 36.0229L75.8637 35.8365C70.9521 29.6437 61.563 19.2298 48.6906 11.3041C35.8149 3.37643 19.4391 -2.07026 0.574601 1.70695L0.633501 2.00111Z" fill="black"/>
</svg>
