<svg width="93" height="42" viewBox="0 0 93 42" fill="none" xmlns="http://www.w3.org/2000/svg">
<path d="M92.1536 39.2047C92.2689 39.0858 92.2661 38.8959 92.1472 38.7805L90.2095 36.9003C90.0906 36.7849 89.9007 36.7877 89.7853 36.9066C89.6699 37.0255 89.6728 37.2155 89.7917 37.3308L91.514 39.0022L89.8427 40.7246C89.7273 40.8435 89.7302 41.0334 89.8491 41.1488C89.968 41.2642 90.1579 41.2613 90.2733 41.1424L92.1536 39.2047ZM0.245117 1L0.016948 1.19478C13.9315 17.4946 26.1397 27.1941 40.2747 32.7287C54.4035 38.2609 70.4269 39.6193 91.9428 39.2958L91.9383 38.9958L91.9338 38.6959C70.4367 39.0191 54.5098 37.6582 40.4935 32.17C26.4833 26.6843 14.3515 17.0625 0.473286 0.805221L0.245117 1Z" fill="black"/>
</svg>
