<svg width="137" height="25" viewBox="0 0 137 25" fill="none" xmlns="http://www.w3.org/2000/svg">
<path d="M11.16 0.895998C12.568 0.895998 13.72 1.10933 14.616 1.536C15.5333 1.94133 16.344 2.42133 17.048 2.976C17.4747 3.296 17.7947 3.33867 18.008 3.104C18.2427 2.848 18.4027 2.26133 18.488 1.344H19.224C19.1813 2.15467 19.1493 3.136 19.128 4.288C19.1067 5.41867 19.096 6.93333 19.096 8.832H18.36C18.2107 7.89333 18.0613 7.12533 17.912 6.528C17.784 5.93067 17.6027 5.41867 17.368 4.992C17.1547 4.56533 16.856 4.14933 16.472 3.744C15.8533 2.976 15.096 2.42133 14.2 2.08C13.304 1.73867 12.3547 1.568 11.352 1.568C10.264 1.568 9.304 1.84533 8.472 2.4C7.64 2.93333 6.936 3.70133 6.36 4.704C5.80533 5.70667 5.37867 6.89067 5.08 8.256C4.78133 9.62133 4.632 11.1147 4.632 12.736C4.632 14.4 4.792 15.9147 5.112 17.28C5.432 18.624 5.89067 19.7867 6.488 20.768C7.10667 21.728 7.84267 22.4747 8.696 23.008C9.57067 23.52 10.5413 23.776 11.608 23.776C12.4827 23.776 13.3893 23.6053 14.328 23.264C15.2667 22.9013 16.0133 22.3573 16.568 21.632C17.1653 20.992 17.5707 20.2773 17.784 19.488C18.0187 18.6773 18.2107 17.5787 18.36 16.192H19.096C19.096 18.1547 19.1067 19.744 19.128 20.96C19.1493 22.1547 19.1813 23.168 19.224 24H18.488C18.4027 23.0827 18.2533 22.5067 18.04 22.272C17.848 22.0373 17.5173 22.0693 17.048 22.368C16.2587 22.9227 15.416 23.4133 14.52 23.84C13.6453 24.2453 12.5147 24.448 11.128 24.448C9.016 24.448 7.17067 23.9893 5.592 23.072C4.01333 22.1547 2.78667 20.832 1.912 19.104C1.03733 17.376 0.6 15.296 0.6 12.864C0.6 10.4747 1.048 8.384 1.944 6.592C2.86133 4.8 4.10933 3.40267 5.688 2.4C7.26667 1.39733 9.09067 0.895998 11.16 0.895998ZM42.3388 1.344V1.984C41.6348 2.02667 41.1014 2.15466 40.7388 2.368C40.3761 2.58133 40.1308 2.93333 40.0028 3.424C39.8748 3.89333 39.8108 4.56533 39.8108 5.44V14.688C39.8108 16.1387 39.7148 17.4293 39.5228 18.56C39.3308 19.6907 38.9894 20.6613 38.4988 21.472C37.9654 22.368 37.1761 23.0933 36.1308 23.648C35.1068 24.1813 33.8801 24.448 32.4508 24.448C31.4268 24.448 30.4348 24.3307 29.4748 24.096C28.5148 23.8613 27.6721 23.4133 26.9468 22.752C26.3068 22.176 25.8054 21.5467 25.4427 20.864C25.0801 20.1813 24.8348 19.36 24.7068 18.4C24.5788 17.4187 24.5148 16.2133 24.5148 14.784V4.736C24.5148 3.94666 24.4508 3.37067 24.3228 3.008C24.2161 2.624 23.9814 2.368 23.6188 2.24C23.2561 2.09067 22.7121 2.00533 21.9868 1.984V1.344C22.4774 1.36533 23.1068 1.38667 23.8748 1.408C24.6641 1.42933 25.5068 1.44 26.4028 1.44C27.2134 1.44 28.0134 1.42933 28.8028 1.408C29.6134 1.38667 30.2748 1.36533 30.7868 1.344V1.984C30.0614 2.00533 29.5068 2.09067 29.1228 2.24C28.7601 2.368 28.5148 2.624 28.3868 3.008C28.2588 3.37067 28.1948 3.94666 28.1948 4.736V15.808C28.1948 16.896 28.2481 17.8987 28.3548 18.816C28.4828 19.7333 28.7068 20.5333 29.0268 21.216C29.3681 21.8773 29.8588 22.4 30.4988 22.784C31.1601 23.1467 32.0134 23.328 33.0588 23.328C34.6374 23.328 35.8534 22.976 36.7068 22.272C37.5814 21.5467 38.1894 20.5653 38.5308 19.328C38.8934 18.0693 39.0748 16.64 39.0748 15.04V5.568C39.0748 4.65067 38.9894 3.94667 38.8188 3.456C38.6481 2.96533 38.3494 2.61333 37.9228 2.4C37.4961 2.16533 36.8881 2.02667 36.0988 1.984V1.344C36.5041 1.36533 37.0268 1.38667 37.6667 1.408C38.3068 1.42933 38.8934 1.44 39.4268 1.44C39.9814 1.44 40.5148 1.42933 41.0268 1.408C41.5601 1.38667 41.9974 1.36533 42.3388 1.344ZM60.6938 1.344C60.6084 2.19733 60.5444 3.02933 60.5018 3.84C60.4804 4.65067 60.4698 5.26933 60.4698 5.696C60.4698 6.18667 60.4804 6.656 60.5018 7.104C60.5231 7.552 60.5444 7.936 60.5658 8.256H59.8298C59.6377 6.69867 59.3711 5.48267 59.0298 4.608C58.7098 3.712 58.2191 3.072 57.5578 2.688C56.8964 2.28267 55.9471 2.08 54.7098 2.08H53.0138C52.3311 2.08 51.8084 2.144 51.4458 2.272C51.1044 2.37867 50.8698 2.61333 50.7418 2.976C50.6138 3.31733 50.5498 3.86133 50.5498 4.608V20.544C50.5498 21.3333 50.6351 21.9307 50.8058 22.336C50.9764 22.72 51.2964 22.976 51.7658 23.104C52.2351 23.232 52.9284 23.3067 53.8458 23.328V24C53.2698 23.9573 52.5231 23.936 51.6058 23.936C50.6884 23.9147 49.7391 23.904 48.7578 23.904C47.9044 23.904 47.0831 23.9147 46.2938 23.936C45.5258 23.936 44.8751 23.9573 44.3418 24V23.36C45.0671 23.3173 45.6111 23.232 45.9738 23.104C46.3364 22.976 46.5711 22.72 46.6778 22.336C46.8058 21.952 46.8698 21.376 46.8698 20.608V4.736C46.8698 3.94666 46.8058 3.37067 46.6778 3.008C46.5711 2.624 46.3258 2.368 45.9418 2.24C45.5791 2.09067 45.0458 2.00533 44.3418 1.984V1.344C45.1738 1.36533 46.0378 1.38667 46.9338 1.408C47.8511 1.408 48.7471 1.41867 49.6218 1.44C50.5178 1.44 51.3498 1.44 52.1178 1.44C52.8858 1.44 53.5151 1.44 54.0058 1.44C54.9871 1.44 56.0964 1.44 57.3338 1.44C58.5924 1.41867 59.7124 1.38667 60.6938 1.344ZM55.7978 12.544C55.7978 12.544 55.7978 12.6507 55.7978 12.864C55.7978 13.0773 55.7978 13.184 55.7978 13.184H49.5898C49.5898 13.184 49.5898 13.0773 49.5898 12.864C49.5898 12.6507 49.5898 12.544 49.5898 12.544H55.7978ZM56.4698 8.32C56.3844 9.536 56.3418 10.464 56.3418 11.104C56.3631 11.744 56.3738 12.3307 56.3738 12.864C56.3738 13.3973 56.3844 13.984 56.4058 14.624C56.4271 15.264 56.4804 16.192 56.5658 17.408H55.8298C55.7444 16.704 55.6164 16.032 55.4458 15.392C55.2751 14.7307 54.9658 14.1973 54.5178 13.792C54.0698 13.3867 53.3978 13.184 52.5017 13.184V12.544C53.1844 12.544 53.7178 12.4053 54.1018 12.128C54.5071 11.8507 54.8164 11.488 55.0298 11.04C55.2431 10.592 55.3924 10.1333 55.4778 9.664C55.5844 9.17333 55.6698 8.72533 55.7338 8.32H56.4698ZM79.1625 1.344C79.0772 2.19733 79.0132 3.02933 78.9705 3.84C78.9492 4.65067 78.9385 5.26933 78.9385 5.696C78.9385 6.18667 78.9492 6.656 78.9705 7.104C78.9918 7.552 79.0132 7.936 79.0345 8.256H78.2985C78.1065 6.69867 77.8398 5.48267 77.4985 4.608C77.1785 3.712 76.6878 3.072 76.0265 2.688C75.3652 2.28267 74.4158 2.08 73.1785 2.08H71.4825C70.7998 2.08 70.2772 2.144 69.9145 2.272C69.5732 2.37867 69.3385 2.61333 69.2105 2.976C69.0825 3.31733 69.0185 3.86133 69.0185 4.608V20.544C69.0185 21.3333 69.1038 21.9307 69.2745 22.336C69.4452 22.72 69.7652 22.976 70.2345 23.104C70.7038 23.232 71.3972 23.3067 72.3145 23.328V24C71.7385 23.9573 70.9918 23.936 70.0745 23.936C69.1572 23.9147 68.2078 23.904 67.2265 23.904C66.3732 23.904 65.5518 23.9147 64.7625 23.936C63.9945 23.936 63.3438 23.9573 62.8105 24V23.36C63.5358 23.3173 64.0798 23.232 64.4425 23.104C64.8052 22.976 65.0398 22.72 65.1465 22.336C65.2745 21.952 65.3385 21.376 65.3385 20.608V4.736C65.3385 3.94666 65.2745 3.37067 65.1465 3.008C65.0398 2.624 64.7945 2.368 64.4105 2.24C64.0478 2.09067 63.5145 2.00533 62.8105 1.984V1.344C63.6425 1.36533 64.5065 1.38667 65.4025 1.408C66.3198 1.408 67.2158 1.41867 68.0905 1.44C68.9865 1.44 69.8185 1.44 70.5865 1.44C71.3545 1.44 71.9838 1.44 72.4745 1.44C73.4558 1.44 74.5652 1.44 75.8025 1.44C77.0612 1.41867 78.1812 1.38667 79.1625 1.344ZM74.2665 12.544C74.2665 12.544 74.2665 12.6507 74.2665 12.864C74.2665 13.0773 74.2665 13.184 74.2665 13.184H68.0585C68.0585 13.184 68.0585 13.0773 68.0585 12.864C68.0585 12.6507 68.0585 12.544 68.0585 12.544H74.2665ZM74.9385 8.32C74.8532 9.536 74.8105 10.464 74.8105 11.104C74.8318 11.744 74.8425 12.3307 74.8425 12.864C74.8425 13.3973 74.8532 13.984 74.8745 14.624C74.8958 15.264 74.9492 16.192 75.0345 17.408H74.2985C74.2132 16.704 74.0852 16.032 73.9145 15.392C73.7438 14.7307 73.4345 14.1973 72.9865 13.792C72.5385 13.3867 71.8665 13.184 70.9705 13.184V12.544C71.6532 12.544 72.1865 12.4053 72.5705 12.128C72.9758 11.8507 73.2852 11.488 73.4985 11.04C73.7118 10.592 73.8612 10.1333 73.9465 9.664C74.0532 9.17333 74.1385 8.72533 74.2025 8.32H74.9385ZM90.0153 1.344V1.984C89.3113 2.00533 88.7779 2.09067 88.4153 2.24C88.0526 2.368 87.8073 2.624 87.6793 3.008C87.5513 3.37067 87.4873 3.94666 87.4873 4.736V20.608C87.4873 21.376 87.5513 21.952 87.6793 22.336C87.8073 22.72 88.0526 22.976 88.4153 23.104C88.7779 23.232 89.3113 23.3173 90.0153 23.36V24C89.5033 23.9573 88.8526 23.936 88.0633 23.936C87.2953 23.9147 86.5059 23.904 85.6953 23.904C84.7993 23.904 83.9566 23.9147 83.1673 23.936C82.3993 23.936 81.7699 23.9573 81.2793 24V23.36C82.0046 23.3173 82.5486 23.232 82.9113 23.104C83.2739 22.976 83.5086 22.72 83.6153 22.336C83.7433 21.952 83.8073 21.376 83.8073 20.608V4.736C83.8073 3.94666 83.7433 3.37067 83.6153 3.008C83.5086 2.624 83.2633 2.368 82.8793 2.24C82.5166 2.09067 81.9833 2.00533 81.2793 1.984V1.344C81.7699 1.36533 82.3993 1.38667 83.1673 1.408C83.9566 1.42933 84.7993 1.44 85.6953 1.44C86.5059 1.44 87.2953 1.42933 88.0633 1.408C88.8526 1.38667 89.5033 1.36533 90.0153 1.344ZM112.946 1.344V1.984C112.221 2.02667 111.677 2.15466 111.314 2.368C110.951 2.58133 110.706 2.93333 110.578 3.424C110.471 3.89333 110.418 4.56533 110.418 5.44V24.128C110.247 24.128 110.077 24.128 109.906 24.128C109.735 24.128 109.554 24.128 109.362 24.128L95.794 4.416V19.776C95.794 20.672 95.858 21.376 95.986 21.888C96.114 22.3787 96.3913 22.7307 96.818 22.944C97.2447 23.1573 97.8953 23.296 98.77 23.36V24C98.3647 23.9573 97.842 23.936 97.202 23.936C96.5833 23.9147 95.9967 23.904 95.442 23.904C94.9087 23.904 94.3753 23.9147 93.842 23.936C93.3087 23.936 92.8713 23.9573 92.53 24V23.36C93.234 23.296 93.7673 23.168 94.13 22.976C94.4927 22.7627 94.738 22.4107 94.866 21.92C94.994 21.4293 95.058 20.7573 95.058 19.904V4.736C95.058 3.94666 94.994 3.37067 94.866 3.008C94.738 2.624 94.4927 2.368 94.13 2.24C93.7673 2.09067 93.234 2.00533 92.53 1.984V1.344C92.8713 1.36533 93.3087 1.38667 93.842 1.408C94.3753 1.42933 94.9087 1.44 95.442 1.44C95.9113 1.44 96.37 1.42933 96.818 1.408C97.266 1.38667 97.6607 1.36533 98.002 1.344L109.682 18.048V5.568C109.682 4.65067 109.607 3.94667 109.458 3.456C109.33 2.96533 109.053 2.61333 108.626 2.4C108.199 2.16533 107.559 2.02667 106.706 1.984V1.344C107.09 1.36533 107.602 1.38667 108.242 1.408C108.882 1.42933 109.479 1.44 110.034 1.44C110.567 1.44 111.101 1.42933 111.634 1.408C112.167 1.38667 112.605 1.36533 112.946 1.344ZM125.941 0.895998C128.032 0.895998 129.867 1.35467 131.445 2.272C133.045 3.18933 134.283 4.512 135.157 6.24C136.032 7.94667 136.469 10.0267 136.469 12.48C136.469 14.8693 136.021 16.96 135.125 18.752C134.229 20.544 132.981 21.9413 131.381 22.944C129.781 23.9467 127.957 24.448 125.909 24.448C123.797 24.448 121.952 23.9893 120.373 23.072C118.795 22.1547 117.568 20.832 116.693 19.104C115.819 17.376 115.381 15.296 115.381 12.864C115.381 10.4747 115.829 8.384 116.725 6.592C117.643 4.8 118.891 3.40267 120.469 2.4C122.048 1.39733 123.872 0.895998 125.941 0.895998ZM125.813 1.472C124.491 1.472 123.339 1.952 122.357 2.912C121.376 3.872 120.619 5.19467 120.085 6.88C119.552 8.56533 119.285 10.5173 119.285 12.736C119.285 14.9973 119.584 16.9707 120.181 18.656C120.779 20.32 121.589 21.6107 122.613 22.528C123.637 23.424 124.779 23.872 126.037 23.872C127.36 23.872 128.501 23.392 129.461 22.432C130.443 21.472 131.2 20.1493 131.733 18.464C132.288 16.7573 132.565 14.8053 132.565 12.608C132.565 10.3253 132.256 8.352 131.637 6.688C131.04 5.024 130.229 3.744 129.205 2.848C128.203 1.93067 127.072 1.472 125.813 1.472Z" fill="black"/>
</svg>
