<svg width="801" height="512" viewBox="0 0 801 512" fill="none" xmlns="http://www.w3.org/2000/svg">
<g filter="url(#filter0_d_593_594)">
<rect x="20" y="16" width="761" height="471.021" rx="16" fill="white" shape-rendering="crispEdges"/>
<g clip-path="url(#clip0_593_594)">
<path d="M344.984 127.725H342.956V72.1596C342.956 67.9364 342.124 63.7545 340.508 59.8527C338.891 55.9509 336.523 52.4056 333.536 49.4193C330.55 46.4331 327.005 44.0642 323.103 42.448C319.201 40.8318 315.019 40 310.796 40H193.074C184.544 40 176.365 43.3882 170.333 49.4193C164.302 55.4504 160.914 63.6303 160.914 72.1595V376.994C160.914 381.218 161.746 385.4 163.362 389.301C164.978 393.203 167.347 396.748 170.333 399.735C173.32 402.721 176.865 405.09 180.767 406.706C184.668 408.322 188.85 409.154 193.074 409.154H310.796C319.325 409.154 327.505 405.766 333.536 399.735C339.567 393.704 342.956 385.524 342.956 376.994V167.277H344.984V127.725Z" fill="#3F3D56"/>
<path d="M312.093 48.3672H296.726C297.433 50.0997 297.703 51.9795 297.512 53.8408C297.321 55.7021 296.675 57.488 295.631 59.041C294.588 60.594 293.178 61.8664 291.527 62.7463C289.875 63.6262 288.033 64.0865 286.162 64.0867H218.72C216.849 64.0865 215.007 63.6262 213.356 62.7463C211.704 61.8665 210.295 60.594 209.251 59.041C208.207 57.488 207.561 55.7022 207.371 53.8408C207.18 51.9795 207.449 50.0997 208.156 48.3672H193.804C190.65 48.3672 187.527 48.9884 184.613 50.1953C181.699 51.4023 179.052 53.1713 176.821 55.4014C174.591 57.6316 172.822 60.2791 171.615 63.1929C170.408 66.1067 169.787 69.2297 169.787 72.3836V376.771C169.787 379.925 170.408 383.048 171.615 385.962C172.822 388.876 174.591 391.523 176.821 393.753C179.051 395.983 181.699 397.752 184.613 398.959C187.527 400.166 190.65 400.788 193.804 400.788H312.093C315.247 400.788 318.37 400.166 321.283 398.959C324.197 397.752 326.845 395.983 329.075 393.753C331.305 391.523 333.074 388.876 334.281 385.962C335.488 383.048 336.109 379.925 336.109 376.771V72.3836C336.109 69.2297 335.488 66.1067 334.281 63.1929C333.074 60.2791 331.305 57.6316 329.075 55.4014C326.845 53.1713 324.197 51.4023 321.283 50.1953C318.37 48.9884 315.247 48.3672 312.093 48.3672Z" fill="white"/>
<path d="M382.716 409.206H123.181C123.001 409.206 122.827 409.134 122.7 409.007C122.572 408.879 122.5 408.706 122.5 408.525C122.5 408.344 122.572 408.171 122.7 408.043C122.827 407.916 123.001 407.844 123.181 407.844H382.716C382.896 407.844 383.07 407.916 383.197 408.043C383.325 408.171 383.397 408.344 383.397 408.525C383.397 408.706 383.325 408.879 383.197 409.007C383.07 409.134 382.896 409.206 382.716 409.206Z" fill="#CBCBCB"/>
<path d="M252.948 275.474C284.718 275.474 310.472 249.72 310.472 217.95C310.472 186.18 284.718 160.426 252.948 160.426C221.178 160.426 195.424 186.18 195.424 217.95C195.424 249.72 221.178 275.474 252.948 275.474Z" fill="#4FD63D"/>
<path d="M247.249 239.894C245.954 239.897 244.695 239.478 243.659 238.702L243.595 238.653L230.076 228.312C229.45 227.832 228.925 227.233 228.53 226.55C228.135 225.867 227.879 225.113 227.775 224.331C227.672 223.549 227.724 222.754 227.928 221.992C228.132 221.229 228.484 220.515 228.964 219.889C229.444 219.263 230.042 218.737 230.725 218.342C231.408 217.948 232.162 217.691 232.945 217.588C233.727 217.485 234.522 217.536 235.284 217.74C236.046 217.944 236.76 218.296 237.387 218.776L246.143 225.491L266.835 198.496C267.315 197.87 267.913 197.345 268.596 196.95C269.279 196.556 270.033 196.3 270.815 196.196C271.596 196.093 272.391 196.145 273.153 196.348C273.915 196.552 274.629 196.904 275.255 197.384L275.256 197.385L275.128 197.564L275.26 197.385C276.522 198.356 277.349 199.787 277.557 201.366C277.765 202.945 277.338 204.542 276.371 205.806L252.032 237.544C251.469 238.276 250.745 238.867 249.917 239.274C249.088 239.68 248.177 239.89 247.254 239.887L247.249 239.894Z" fill="white"/>
<path d="M595.415 414.86C596.115 413.728 596.939 412.678 597.871 411.729C598.256 411.331 598.661 410.955 599.08 410.589C601.623 408.325 604.724 406.78 608.062 406.111C611.401 405.443 614.858 405.676 618.076 406.787C621.295 407.897 624.16 409.845 626.377 412.429C628.594 415.014 630.082 418.143 630.688 421.493C633.498 411.103 626.184 400.87 618.832 393.009C611.475 385.15 603.067 376.53 603.109 365.762C603.129 359.771 606.06 354.425 610.486 350.462C610.622 350.342 610.759 350.222 610.898 350.107C616.247 345.522 623.128 343.124 630.167 343.391C643.246 344.092 654.665 352.882 662.595 363.308C675.36 380.084 680.954 403.632 672.017 422.729C664.157 439.525 647.393 449.498 630.284 457.517C627.895 458.637 625.511 459.723 623.131 460.775C623.116 460.779 623.098 460.79 623.082 460.795C622.968 460.845 622.853 460.895 622.746 460.947C622.255 461.164 621.764 461.381 621.277 461.594L621.502 461.742L622.206 462.197C621.962 462.05 621.72 461.906 621.477 461.759C621.404 461.714 621.327 461.672 621.255 461.627C612.852 456.585 604.332 451.251 598.527 443.379C592.506 435.207 590.085 423.5 595.415 414.86Z" fill="#F1F1F1"/>
<path d="M651.479 395.88C653.34 400.113 654.573 404.594 655.141 409.183C655.587 413.275 655.419 417.411 654.643 421.453C652.974 429.76 649.335 437.545 644.031 444.152C640.03 449.169 635.411 453.659 630.284 457.517C627.895 458.637 625.511 459.723 623.131 460.776C623.115 460.78 623.098 460.791 623.082 460.795C622.968 460.845 622.853 460.896 622.746 460.948C622.255 461.164 621.763 461.381 621.277 461.595L621.502 461.743L622.206 462.198C621.962 462.05 621.72 461.907 621.476 461.759C621.404 461.715 621.327 461.672 621.255 461.628C623.104 455.159 623.376 448.341 622.048 441.746C620.719 435.151 617.83 428.97 613.621 423.722C609.389 418.539 603.992 414.43 597.871 411.73C598.256 411.331 598.661 410.955 599.079 410.59C601.437 411.673 603.695 412.962 605.826 414.442C613.446 419.709 619.169 427.29 622.146 436.063C624.804 444.022 625.136 452.573 623.103 460.714C623.525 460.438 623.948 460.155 624.36 459.874C632.188 454.595 639.403 448.255 644.837 440.48C649.524 433.909 652.523 426.286 653.571 418.283C654.613 409.541 652.425 400.944 648.522 393.144C644.212 384.798 638.781 377.082 632.38 370.208C625.951 363.144 618.682 356.894 610.735 351.596C610.556 351.475 610.43 351.29 610.384 351.079C610.337 350.869 610.374 350.648 610.485 350.463C610.571 350.295 610.719 350.167 610.898 350.107C610.989 350.084 611.084 350.082 611.175 350.1C611.267 350.119 611.354 350.158 611.429 350.215C612.41 350.869 613.383 351.53 614.343 352.21C622.347 357.877 629.615 364.516 635.982 371.975C642.134 379.165 647.732 387.154 651.479 395.88Z" fill="white"/>
<path d="M480.154 66.7104C486.901 66.7104 492.371 61.2409 492.371 54.4939C492.371 47.7469 486.901 42.2773 480.154 42.2773C473.407 42.2773 467.938 47.7469 467.938 54.4939C467.938 61.2409 473.407 66.7104 480.154 66.7104Z" fill="#F1F1F1"/>
<path d="M632.061 230.197C636.174 230.197 639.509 226.863 639.509 222.749C639.509 218.635 636.174 215.301 632.061 215.301C627.947 215.301 624.612 218.635 624.612 222.749C624.612 226.863 627.947 230.197 632.061 230.197Z" fill="#F1F1F1"/>
<path d="M414.078 250.633C418.192 250.633 421.526 247.298 421.526 243.185C421.526 239.071 418.192 235.736 414.078 235.736C409.965 235.736 406.63 239.071 406.63 243.185C406.63 247.298 409.965 250.633 414.078 250.633Z" fill="#F1F1F1"/>
<path d="M418.284 463.021H677.818C677.999 463.021 678.172 462.949 678.3 462.821C678.428 462.693 678.499 462.52 678.499 462.339C678.499 462.159 678.428 461.985 678.3 461.858C678.172 461.73 677.999 461.658 677.818 461.658H418.284C418.103 461.658 417.93 461.73 417.802 461.858C417.674 461.985 417.603 462.159 417.603 462.339C417.603 462.52 417.674 462.693 417.802 462.821C417.93 462.949 418.103 463.021 418.284 463.021Z" fill="#CBCBCB"/>
<path d="M649.178 105.828C649.519 103.408 648.96 100.948 647.608 98.9128C646.256 96.8776 644.204 95.4091 641.842 94.7856C639.479 94.162 636.97 94.4267 634.79 95.5296C632.609 96.6324 630.909 98.4968 630.012 100.769L608.951 124.914L615.131 142.173L636.311 113.961C637.693 114.404 639.155 114.538 640.595 114.355C642.035 114.171 643.417 113.674 644.643 112.899C645.87 112.123 646.912 111.088 647.695 109.867C648.479 108.645 648.985 107.266 649.178 105.828Z" fill="#FFB7B7"/>
<path d="M561.879 199.774L631.789 125.164L622.359 110.172L534.674 184.329L561.879 199.774Z" fill="#3F3D56"/>
<path d="M546.275 154.44C559.819 154.44 570.798 143.461 570.798 129.917C570.798 116.374 559.819 105.395 546.275 105.395C532.731 105.395 521.752 116.374 521.752 129.917C521.752 143.461 532.731 154.44 546.275 154.44Z" fill="#2F2E41"/>
<path d="M548.247 116.065C553.524 110.714 559.91 106.585 566.955 103.968C571.477 102.292 576.399 101.257 581.127 102.209C585.855 103.16 590.326 106.431 591.645 111.069C592.723 114.863 591.61 118.947 589.936 122.517C588.262 126.088 586.027 129.399 584.674 133.103C583.293 136.882 582.877 140.947 583.466 144.927C584.054 148.908 585.627 152.678 588.042 155.897C590.457 159.115 593.637 161.679 597.295 163.357C600.952 165.034 604.97 165.772 608.985 165.502C604.34 166.125 600.058 168.308 595.517 169.47C590.977 170.632 585.618 170.553 582.244 167.3C578.673 163.858 578.602 158.263 578.775 153.307C579.031 145.94 579.288 138.573 579.544 131.205C579.675 127.448 579.787 123.571 578.432 120.064C577.077 116.557 573.857 113.487 570.098 113.519C567.249 113.543 564.727 115.269 562.442 116.971C560.157 118.673 557.739 120.489 554.901 120.742C552.063 120.996 548.823 118.895 549.035 116.054L548.247 116.065Z" fill="#2F2E41"/>
<path d="M453.135 294.577C450.781 295.231 448.268 294.999 446.074 293.924C443.879 292.85 442.155 291.007 441.228 288.747C440.302 286.486 440.236 283.964 441.045 281.658C441.853 279.352 443.479 277.423 445.615 276.236L466.801 252.201L484.719 256.072L459.517 280.758C460.137 282.07 460.461 283.502 460.467 284.954C460.473 286.405 460.161 287.84 459.552 289.157C458.944 290.475 458.054 291.643 456.945 292.579C455.836 293.516 454.536 294.198 453.135 294.577Z" fill="#FFB7B7"/>
<path d="M522.835 208.53L470.033 274.81L453.938 267.421L516.001 170.797L522.835 208.53Z" fill="#3F3D56"/>
<path d="M480.704 408.668L468.119 408.471L469.633 451.363H480.701L480.704 408.668Z" fill="#FFB7B7"/>
<path d="M483.525 447.749L461.726 447.748H461.725C458.041 447.748 454.507 449.212 451.902 451.817C449.297 454.422 447.833 457.956 447.833 461.64V462.091L483.524 462.093L483.525 447.749Z" fill="#2F2E41"/>
<path d="M564.025 397.293L550.278 406.118L577.777 439.201L587.091 433.22L564.025 397.293Z" fill="#FFB7B7"/>
<path d="M587.515 428.654L569.171 440.431L569.17 440.432C566.07 442.422 563.888 445.563 563.103 449.163C562.318 452.763 562.996 456.527 564.986 459.627L565.23 460.007L595.264 440.725L587.515 428.654Z" fill="#2F2E41"/>
<path d="M568.924 266.32C568.924 266.32 538.379 164.872 528.563 163.501C518.747 162.13 502.931 189.531 502.931 189.531C482.425 215.695 461.28 300.444 461.28 300.444C461.28 300.444 496.53 302.65 522.297 316.359C548.064 330.068 578.473 315.665 578.473 315.665L568.924 266.32Z" fill="#3F3D56"/>
<path opacity="0.1" d="M568.924 266.32C568.924 266.32 538.379 164.871 528.563 163.5C518.747 162.13 506.948 189.809 506.948 189.809C496.73 232.043 461.28 300.443 461.28 300.443C461.28 300.443 496.53 302.649 522.297 316.358C548.064 330.068 578.473 315.664 578.473 315.664L568.924 266.32Z" fill="black"/>
<path d="M543.863 235.967V286.944L549.863 360.788L579.835 416.646L565.53 426.863L524.658 373.73L508.493 320.973L483.106 437.763L464.032 436.4L477.279 274.473L502.415 228.895L543.863 235.967Z" fill="#2F2E41"/>
<path d="M513.068 186.661C503.531 196.197 512.386 206.415 512.386 206.415L501.487 230.938L544.402 242.518L559.4 175.504L549.182 164.605C528.746 163.924 528.735 163.5 528.735 163.5C525.155 167.004 513.068 186.661 513.068 186.661Z" fill="#F9E6D0"/>
<path d="M561.127 168.562C559.178 167.123 556.963 166.085 554.61 165.509C552.257 164.932 549.813 164.828 547.419 165.203C545.026 165.577 542.73 166.423 540.666 167.691C538.602 168.959 536.81 170.624 535.393 172.59C524.605 187.611 514.629 211.868 528.374 242.12C550.444 290.696 569.65 315.563 577.457 315.56C577.798 315.563 578.137 315.51 578.461 315.402C583.267 313.772 590.215 305.639 591.473 298.473C591.924 295.908 591.817 292.335 588.749 289.882C579.937 282.834 564.119 260.889 559.184 232.005C556.457 216.045 561.745 201.506 566.662 192.121C568.739 188.238 569.346 183.736 568.373 179.441C567.4 175.146 564.912 171.345 561.364 168.736L561.127 168.562Z" fill="#3F3D56"/>
<path d="M547.536 152.032C556.284 147.25 559.499 136.282 554.717 127.534C549.935 118.786 538.966 115.571 530.218 120.353C521.471 125.135 518.256 136.103 523.038 144.851C527.82 153.599 538.788 156.814 547.536 152.032Z" fill="#FFB7B7"/>
<path d="M513.491 134.827H539.557L539.825 131.084L541.161 134.827H545.175L545.705 127.409L548.353 134.827H556.12V134.459C556.114 129.295 554.06 124.345 550.409 120.693C546.757 117.042 541.807 114.988 536.643 114.982H532.968C527.804 114.988 522.854 117.042 519.202 120.693C515.551 124.345 513.497 129.295 513.491 134.459V134.827Z" fill="#2F2E41"/>
<path d="M552.181 148.279L563.305 144.669V117.656H542.294L542.814 118.176C550.052 125.404 558.101 151.048 552.181 148.279Z" fill="#2F2E41"/>
</g>
</g>
<defs>
<filter id="filter0_d_593_594" x="0" y="0" width="801" height="511.021" filterUnits="userSpaceOnUse" color-interpolation-filters="sRGB">
<feFlood flood-opacity="0" result="BackgroundImageFix"/>
<feColorMatrix in="SourceAlpha" type="matrix" values="0 0 0 0 0 0 0 0 0 0 0 0 0 0 0 0 0 0 127 0" result="hardAlpha"/>
<feMorphology radius="4" operator="dilate" in="SourceAlpha" result="effect1_dropShadow_593_594"/>
<feOffset dy="4"/>
<feGaussianBlur stdDeviation="8"/>
<feComposite in2="hardAlpha" operator="out"/>
<feColorMatrix type="matrix" values="0 0 0 0 0 0 0 0 0 0 0 0 0 0 0 0 0 0 0.08 0"/>
<feBlend mode="normal" in2="BackgroundImageFix" result="effect1_dropShadow_593_594"/>
<feBlend mode="normal" in="SourceGraphic" in2="effect1_dropShadow_593_594" result="shape"/>
</filter>
<clipPath id="clip0_593_594">
<rect width="556" height="423.021" fill="white" transform="translate(122.5 40)"/>
</clipPath>
</defs>
</svg>
