<svg width="32" height="32" viewBox="0 0 32 32" fill="none" xmlns="http://www.w3.org/2000/svg">
<rect width="32" height="32" rx="2" fill="#F9E6D0"/>
<path d="M7.97852 17.4609V10.0769C7.97852 9.61627 8.13285 9.23194 8.44152 8.92394C8.75018 8.61594 9.13452 8.4616 9.59452 8.46094H14.9785V17.4609H7.97852ZM16.9785 8.46094H22.3635C22.8235 8.46094 23.2075 8.61527 23.5155 8.92394C23.8235 9.2326 23.9778 9.61894 23.9785 10.0829V13.4609H16.9785V8.46094ZM16.9785 24.4609V15.4609H23.9785V22.8459C23.9785 23.3059 23.8245 23.6899 23.5165 23.9979C23.2085 24.3059 22.8238 24.4603 22.3625 24.4609H16.9785ZM7.97852 19.4609H14.9785V24.4609H9.59452C9.13385 24.4609 8.74952 24.3069 8.44152 23.9989C8.13352 23.6909 7.97918 23.3043 7.97852 22.8389V19.4609Z" fill="#A86746"/>
</svg>
