<svg width="32" height="32" viewBox="0 0 32 32" fill="none" xmlns="http://www.w3.org/2000/svg">
<rect width="32" height="32" rx="2" fill="#F9E6D0"/>
<path d="M22.5457 8.24609C21.8461 8.30094 21.1746 8.37828 20.5242 8.4732L20.7527 9.33664L20.4469 9.41785L20.141 9.49906L19.8949 8.57234C19.1883 8.69188 18.5098 8.83461 17.8559 8.99527L18.1652 9.89914L17.5676 10.103L17.2441 9.15594C16.5551 9.34367 15.8941 9.55074 15.2648 9.77539L15.641 10.7239L15.0504 10.9559L14.6707 9.99617C14.0273 10.2426 13.4086 10.5056 12.8215 10.7766L13.2609 11.7364L12.6844 12.0036L12.2484 11.0544C11.5383 11.4024 10.8703 11.761 10.2291 12.1266L10.7824 12.995L10.2481 13.3325L9.68204 12.443C9.14028 12.7595 8.61469 13.0794 8.11266 13.3923C7.96747 13.7333 8.02231 14.0954 8.19704 14.4259C8.35348 14.7212 8.61082 14.9567 8.83618 15.0763C12.832 12.1372 18.4535 10.3987 23.8922 9.46602C23.5898 9.01637 23.0941 8.51258 22.5457 8.24609ZM15.4723 13.5083C15.0223 13.5083 14.5688 13.5153 14.1152 13.5259L14.1047 14.1833L13.4719 14.1763L13.4824 13.5434C13.1766 13.5505 12.8742 13.561 12.5684 13.5716C11.5699 14.0637 10.6277 14.6016 9.76219 15.1923C14.4316 14.3942 19.4731 14.9602 23.4246 15.9411L23.4211 15.9376C23.4281 15.9411 23.4598 15.9446 23.5547 15.8356C23.6531 15.7231 23.7586 15.5262 23.8359 15.3153C23.9133 15.1044 23.9625 14.8759 23.9695 14.7106C23.9731 14.6298 23.959 14.5735 23.952 14.5419C23.5898 14.4259 23.2172 14.3239 22.834 14.2325C22.2328 14.0848 21.6106 13.9653 20.9707 13.8669L20.7598 14.5489L20.4574 14.454L20.1551 14.3591L20.3344 13.7825C19.8563 13.7227 19.3711 13.67 18.8754 13.6313L18.7875 14.2993L18.1617 14.2149L18.2426 13.5891C17.6695 13.554 17.0859 13.5294 16.4953 13.5188L16.5059 14.1024L15.8731 14.1165L15.8625 13.5118C15.7324 13.5118 15.6023 13.5083 15.4723 13.5083ZM18.7207 15.7196C18.2496 15.8391 17.7926 15.9727 17.3496 16.1204L17.7082 16.9079L17.1316 17.168L16.752 16.3313C16.1227 16.5634 15.5285 16.8235 14.9766 17.1083L15.3809 17.7727L14.8395 18.1032L14.4211 17.4106C14.1188 17.5829 13.8305 17.7622 13.5598 17.9485C13.2504 18.163 12.9621 18.388 12.6949 18.62L13.377 19.1579L12.9832 19.6571L12.2273 19.0595C11.7352 19.5516 11.3449 20.072 11.0707 20.6098C11.0215 20.7083 10.9758 20.8102 10.9336 20.9122C11.2254 20.8665 11.4996 20.8489 11.7633 20.8524C12.2906 20.863 12.7617 20.9684 13.1941 21.1302C13.1977 21.1196 13.1977 21.1055 13.2012 21.095C13.4016 20.3637 13.9113 19.7309 14.7129 19.1579C16.1297 18.1489 18.5203 17.2805 22.0781 16.2821C21.3258 16.1204 20.5418 15.9762 19.7332 15.8567L19.8246 16.0887L19.234 16.3208L19.0125 15.7583C18.9141 15.7442 18.8191 15.7302 18.7207 15.7196ZM11.7563 21.4677C11.4363 21.4641 11.0918 21.5028 10.7086 21.5942C10.5539 22.2341 10.5609 22.8915 10.7508 23.563C10.7684 23.5805 10.9195 23.686 11.2148 23.7282C11.5242 23.7704 11.9285 23.7598 12.3152 23.7106C12.6984 23.6614 13.0676 23.57 13.2891 23.4751C13.3523 23.447 13.3981 23.4223 13.4332 23.3977C13.2117 22.8212 13.0992 22.2798 13.1098 21.7665C12.702 21.5872 12.2625 21.4747 11.7563 21.4677Z" fill="#A86746"/>
</svg>
