<svg width="32" height="32" viewBox="0 0 32 32" fill="none" xmlns="http://www.w3.org/2000/svg">
<rect width="32" height="32" rx="2" fill="#F9E6D0"/>
<path d="M25.2163 15.0085L23.2583 11.7608C23.1149 11.5249 22.9135 11.3298 22.6733 11.194C22.433 11.0583 22.162 10.9864 21.886 10.9853H20.3488V10.757C20.3488 10.4274 20.2837 10.101 20.1572 9.79662C20.0307 9.49223 19.8454 9.21582 19.6118 8.98327C19.1395 8.5127 18.5001 8.24836 17.8334 8.2481H8.68234C8.18427 8.2448 7.69656 8.39021 7.28161 8.66569C6.86667 8.94118 6.54336 9.33423 6.35309 9.79452C6.22719 10.0997 6.16361 10.4269 6.16609 10.757V18.9685C6.1666 19.3542 6.30683 19.7266 6.56081 20.0168C6.81479 20.307 7.16532 20.4954 7.5475 20.547C7.54322 20.6295 7.54322 20.7117 7.5475 20.7936C7.54424 21.1824 7.61953 21.5678 7.76886 21.9268C7.91818 22.2858 8.13847 22.6109 8.4165 22.8827C8.68933 23.1667 9.01591 23.3935 9.37723 23.5501C9.73855 23.7067 10.1274 23.7899 10.5212 23.7948C11.3071 23.7876 12.0589 23.4731 12.6158 22.9184C13.1721 22.3647 13.4882 21.6143 13.4958 20.8294C13.5005 20.7536 13.5005 20.6777 13.4958 20.602H18.5457C18.541 20.6777 18.541 20.7536 18.5457 20.8294C18.5423 21.2183 18.6175 21.6039 18.7668 21.963C18.9162 22.3222 19.1365 22.6475 19.4147 22.9194C19.6877 23.2035 20.0146 23.4305 20.3762 23.5871C20.7379 23.7437 21.1271 23.8268 21.5212 23.8314C22.3071 23.8243 23.0589 23.5097 23.6158 22.9551C24.1717 22.4012 24.4875 21.6508 24.4948 20.866C24.4996 20.79 24.4996 20.7138 24.4948 20.6378H25.1878C25.3686 20.6352 25.5414 20.5624 25.6695 20.4348C25.7976 20.3072 25.8711 20.1347 25.8744 19.9539V17.3176C25.8744 16.5018 25.6462 15.7024 25.2163 15.0085ZM12.1134 20.7927C12.1137 21.0022 12.0717 21.2097 11.99 21.4026C11.9082 21.5956 11.7884 21.77 11.6377 21.9156C11.3327 22.2054 10.9281 22.367 10.5074 22.367C10.0867 22.367 9.68213 22.2054 9.37717 21.9156C9.22852 21.7673 9.11082 21.5909 9.03088 21.3967C8.95094 21.2025 8.91036 20.9944 8.9115 20.7844C8.9072 20.5676 8.95103 20.3525 9.03983 20.1547C9.16084 19.8678 9.36892 19.6258 9.63384 19.4608C9.90479 19.2817 10.224 19.1896 10.5487 19.1968C10.8585 19.1968 11.161 19.2884 11.4177 19.4608C11.6808 19.6285 11.8879 19.8696 12.0135 20.1547C12.1033 20.3518 12.151 20.5672 12.1501 20.7844L12.1134 20.7927ZM15.0871 16.2314H10.5129C10.2708 16.2311 10.0385 16.1351 9.86694 15.9642C9.69536 15.7933 9.59838 15.5614 9.59717 15.3193C9.59693 15.1991 9.62044 15.0802 9.66635 14.9692C9.71226 14.8582 9.77967 14.7573 9.86469 14.6725C9.94971 14.5876 10.0507 14.5204 10.1618 14.4747C10.2729 14.4291 10.3919 14.4058 10.512 14.4063H15.0871C15.3292 14.4068 15.5614 14.503 15.7328 14.6741C15.9042 14.8452 16.0009 15.0771 16.0019 15.3193C16.002 15.4393 15.9784 15.5582 15.9325 15.6691C15.8865 15.78 15.8191 15.8807 15.7341 15.9655C15.6491 16.0502 15.5481 16.1173 15.4371 16.163C15.3261 16.2086 15.2071 16.2318 15.0871 16.2314ZM15.0871 13.0927H10.5129C10.2708 13.0924 10.0385 12.9964 9.86694 12.8255C9.69536 12.6546 9.59838 12.4228 9.59717 12.1806C9.59705 12.0606 9.62065 11.9417 9.66661 11.8308C9.71258 11.7199 9.78 11.6192 9.86501 11.5344C9.95002 11.4497 10.0509 11.3825 10.162 11.3369C10.273 11.2913 10.392 11.268 10.512 11.2685H15.0871C15.3291 11.269 15.5611 11.3652 15.7325 11.536C15.9038 11.7069 16.0007 11.9386 16.0019 12.1806C16.002 12.3006 15.9784 12.4195 15.9325 12.5304C15.8865 12.6413 15.8191 12.742 15.7341 12.8268C15.6491 12.9115 15.5481 12.9787 15.4371 13.0243C15.3261 13.0699 15.2071 13.0932 15.0871 13.0927ZM23.0933 20.7927C23.0934 21.0023 23.0513 21.2098 22.9694 21.4027C22.8875 21.5957 22.7675 21.7701 22.6166 21.9156C22.3117 22.2051 21.9073 22.3665 21.4868 22.3665C21.0663 22.3665 20.6619 22.2051 20.357 21.9156C20.2082 21.7674 20.0903 21.591 20.0102 21.3968C19.9301 21.2026 19.8894 20.9945 19.8904 20.7844C19.8865 20.4521 19.9929 20.1278 20.1929 19.8623C20.4184 19.5625 20.742 19.3489 21.1078 19.26H21.3369C21.3788 19.25 21.4224 19.25 21.4643 19.26H21.6477C21.9254 19.2921 22.1903 19.3957 22.4158 19.5616C22.6423 19.7275 22.8192 19.9512 22.9283 20.2097C23.019 20.4068 23.0658 20.6222 23.0658 20.8385L23.0933 20.7927Z" fill="#A86746"/>
<path d="M21.4848 19.1873C21.4426 19.1772 21.3986 19.1772 21.3564 19.1873H21.4848Z" fill="#A86746"/>
</svg>
