<svg width="32" height="32" viewBox="0 0 32 32" fill="none" xmlns="http://www.w3.org/2000/svg">
<rect width="32" height="32" rx="2" fill="#F9E6D0"/>
<path d="M9.03689 22.0799C9.03486 22.1749 9.00395 22.267 8.94827 22.3439C8.89259 22.4209 8.81479 22.4791 8.72522 22.5107C8.54806 22.5748 8.39493 22.6919 8.28667 22.846C8.17842 23.0002 8.1203 23.184 8.12022 23.3724V24.7474C8.12022 25.0483 8.1795 25.3463 8.29466 25.6244C8.40983 25.9024 8.57863 26.155 8.79143 26.3678C9.00423 26.5807 9.25687 26.7495 9.5349 26.8646C9.81294 26.9798 10.1109 27.0391 10.4119 27.0391H21.6319C21.9328 27.0391 22.2308 26.9798 22.5089 26.8646C22.7869 26.7495 23.0395 26.5807 23.2523 26.3678C23.4651 26.155 23.6339 25.9024 23.7491 25.6244C23.8643 25.3463 23.9236 25.0483 23.9236 24.7474V23.3724C23.9235 23.184 23.8654 23.0002 23.7571 22.846C23.6488 22.6919 23.4957 22.5748 23.3186 22.5107C23.229 22.4791 23.1512 22.4209 23.0955 22.3439C23.0398 22.267 23.0089 22.1749 23.0069 22.0799V9.99823C23.0114 9.89866 23.0477 9.80316 23.1104 9.72565C23.173 9.64815 23.2588 9.5927 23.3552 9.5674C23.5255 9.49746 23.6708 9.37785 23.7722 9.22416C23.8736 9.07047 23.9263 8.88982 23.9236 8.70573V7.33073C23.9236 6.72294 23.6821 6.14005 23.2523 5.71028C22.8226 5.28051 22.2397 5.03906 21.6319 5.03906H10.4119C9.8041 5.03906 9.2212 5.28051 8.79143 5.71028C8.36166 6.14005 8.12022 6.72294 8.12022 7.33073V8.70573C8.11746 8.88982 8.17021 9.07047 8.27158 9.22416C8.37295 9.37785 8.51825 9.49746 8.68855 9.5674C8.77812 9.59904 8.85593 9.65722 8.91161 9.73419C8.96728 9.81115 8.99819 9.90326 9.00022 9.99823L9.03689 22.0799ZM21.1827 15.2782C21.1807 15.3732 21.1498 15.4653 21.0941 15.5423C21.0384 15.6192 20.9606 15.6774 20.8711 15.7091L11.1727 19.1191C11.1397 19.1346 11.1037 19.1426 11.0673 19.1426C11.0309 19.1426 10.9949 19.1346 10.9619 19.1191C10.9316 19.0995 10.9071 19.0722 10.891 19.0399C10.8749 19.0077 10.8677 18.9717 10.8702 18.9357V16.7999C10.8703 16.7057 10.8993 16.6138 10.9534 16.5367C11.0076 16.4596 11.0841 16.4011 11.1727 16.3691L20.8711 12.9591C20.904 12.9435 20.94 12.9355 20.9765 12.9355C21.0129 12.9355 21.0489 12.9435 21.0819 12.9591C21.1132 12.9782 21.139 13.0052 21.1567 13.0373C21.1743 13.0695 21.1833 13.1057 21.1827 13.1424V15.2782ZM18.5977 9.6224C18.6538 9.61997 18.7087 9.63818 18.7522 9.67357C18.7957 9.70896 18.8248 9.75907 18.8338 9.81442C18.8428 9.86977 18.8313 9.92652 18.8013 9.97391C18.7713 10.0213 18.7249 10.056 18.6711 10.0716L11.4386 12.5924C11.3702 12.6157 11.2974 12.6229 11.2258 12.6133C11.1543 12.6038 11.0859 12.5778 11.0261 12.5374C10.9656 12.4953 10.9165 12.439 10.8829 12.3735C10.8493 12.308 10.8324 12.2352 10.8336 12.1616V10.0807C10.8336 9.95917 10.8818 9.84259 10.9678 9.75664C11.0537 9.67068 11.1703 9.6224 11.2919 9.6224H18.5977ZM13.4461 22.4557C13.39 22.4582 13.335 22.4399 13.2915 22.4046C13.248 22.3692 13.219 22.3191 13.21 22.2637C13.2009 22.2084 13.2125 22.1516 13.2425 22.1042C13.2725 22.0568 13.3188 22.0221 13.3727 22.0066L20.6052 19.4857C20.6736 19.4624 20.7464 19.4553 20.8179 19.4648C20.8895 19.4743 20.9579 19.5003 21.0177 19.5407C21.0793 19.5823 21.1298 19.6383 21.1649 19.7038C21.2001 19.7692 21.2188 19.8423 21.2194 19.9166V21.9974C21.2194 22.119 21.1711 22.2355 21.0851 22.3215C20.9992 22.4074 20.8826 22.4557 20.7611 22.4557H13.4461Z" fill="#A86746"/>
</svg>
